<svg id="svg" version="1.1" xmlns="http://www.w3.org/2000/svg" xmlns:xlink="http://www.w3.org/1999/xlink" width="400" height="416.6666666666667" viewBox="0, 0, 400,416.6666666666667"><g id="svgg"><path id="path0" d="M284.495 33.507 C 280.771 38.491,31.250 395.129,31.250 395.468 C 31.250 395.669,38.563 395.833,47.502 395.833 L 63.753 395.833 189.647 215.799 C 258.889 116.780,316.300 34.748,317.228 33.507 L 318.915 31.250 302.548 31.250 L 286.182 31.250 284.495 33.507 M66.146 44.330 L 25.694 54.502 25.694 68.223 C 25.694 75.770,25.858 81.944,26.059 81.944 C 26.259 81.944,35.869 79.597,47.413 76.728 C 58.957 73.859,69.106 71.353,69.965 71.159 L 71.528 70.807 71.528 159.709 L 71.528 248.611 89.236 248.611 L 106.944 248.611 106.944 141.319 C 106.944 82.309,106.866 34.057,106.771 34.093 C 106.675 34.128,88.394 38.735,66.146 44.330 M292.708 173.637 C 278.283 174.518,264.808 177.397,250.174 182.724 L 242.361 185.568 242.361 199.786 C 242.361 207.606,242.595 213.884,242.882 213.737 C 295.272 186.803,332.268 194.197,332.241 231.597 C 332.225 252.731,321.115 269.822,288.542 298.822 C 266.378 318.554,254.647 331.407,243.325 348.361 L 237.500 357.083 237.500 372.291 L 237.500 387.500 303.472 387.500 L 369.444 387.500 369.444 372.569 L 369.444 357.639 323.912 357.639 L 278.379 357.639 278.861 356.076 C 284.046 339.288,295.900 324.916,322.222 303.507 C 363.022 270.322,376.834 242.412,367.259 212.500 C 360.561 191.577,338.145 175.649,313.001 173.949 C 309.861 173.736,305.885 173.465,304.167 173.345 C 302.448 173.226,297.292 173.357,292.708 173.637 " stroke="none" fill="#10dc60" fill-rule="evenodd"></path></g></svg>